<?xml version="1.0" encoding="UTF-8"?> <svg xmlns="http://www.w3.org/2000/svg" id="Layer_1" data-name="Layer 1" width="213" height="170.59" viewBox="0 0 213 170.59"><defs><style>.cls-1{fill:#280e37;}.cls-2{fill:#05b9ad;}.cls-3{fill:#ec1b56;}.cls-4{fill:#fedf5a;}</style></defs><path class="cls-1" d="M154.66,154.73c-1-.73-1.87-1.17-2.82-1.83s-2-.39-3-.74c-.25-.08-3-.53-3.23-.59s-.74.28-1,.25c-.73-.08.07.27-.67.34-.4.3-.33.34-.58.89-.09.4-.32.59-.14.94s0,.51.81.74a9.05,9.05,0,0,1,.8.45c.53.28.54.39,1.13.39a3.77,3.77,0,0,1,.85.3c.15,0,.82.38,1,.39.72.05.4.31,1.12.4a10.38,10.38,0,0,1,2.9.81,3.68,3.68,0,0,1,.71.37,22.43,22.43,0,0,1,1.89,1.35c.49.41.9,1,1.37,1.41a6.63,6.63,0,0,1,1,1.61,3.14,3.14,0,0,1,.31.73c.16.73.3,1.47.44,2.2,0,.14.05.28.09.42a4.45,4.45,0,0,1-.06,2.63,3.17,3.17,0,0,0-.12.75,6.11,6.11,0,0,1-.39,2,7.46,7.46,0,0,1-.94,1.74,2.39,2.39,0,0,1-.67.6c-.3.21-.64.35-.94.56s-.36.38-.56.51c-.39.26-.8.49-1.2.72s-.59.35-.9.51a8.31,8.31,0,0,1-2.29.89l-2.12.4c-.13,0-.26,0-.39,0-.42,0-.84.09-1.26.1a5,5,0,0,1-1.16-.07c-.47-.1-.59.37-1,.21s-1.12.11-1.53,0a7.23,7.23,0,0,1-2.46-.78c-.47-.34-1.41-.07-1.93-.34-.75-.39-1-.4-1.7-.79-.28-.15-1-.23-1.25-.35-.54-.22-.23-1-.23-1.63a13.52,13.52,0,0,1,1.17-3.06c.37-.94-.22-1.79.22-2.67.15-.3.16-.84.32-1.14.23-.47.49-.38.93-.15s1.48.71,2,1c1,.61,1.33.43,2.29,1a13,13,0,0,0,1.25.39c.5.16.78,0,1.29.13a4.11,4.11,0,0,0,3,0c.18,0,.79-.6,1-.64.77-.16.48-.27.45-1.13a1.3,1.3,0,0,0-.27-1c-.46-.7-.28-.52-1-.7-.53-.12-.76-.34-1.3-.49a9.7,9.7,0,0,0-1.88-.64,9,9,0,0,1-1.3-.55,5.26,5.26,0,0,0-1.56-.39,2.6,2.6,0,0,1-.58-.1,1.13,1.13,0,0,0-.77-.29,5.4,5.4,0,0,1-1-.45c-.56-.44-1-.39-1.62-.74a9.1,9.1,0,0,1-1.56-1.48c-.49-.57-.72-1.37-1.17-2-.32-.45,0-1-.36-1.48a2.31,2.31,0,0,1-.17-1.88,5.25,5.25,0,0,0,0-1.19,2.44,2.44,0,0,1,0-1.58c.11-.54.3-1,.4-1.53.06-.37.59-.89.72-1.23.17-.49.4-.76.58-1.24a2.24,2.24,0,0,1,.72-.89c.47-.47.84-.85,1.34-1.28a5,5,0,0,1,1.12-.6c.47-.25.86-.6,1.34-.84.69-.34.82-.62,1.57-.64.45,0,.82-.47,1.27-.35a2.5,2.5,0,0,0,.9,0,11.76,11.76,0,0,1,2.14.08c.79.05,1.36-.32,2.1,0a13.48,13.48,0,0,0,1.56,0c.52.12,1.27,0,1.7.3s1.19.11,1.53.3c.16.09.89.27,1,.39.59.53,1.51.32,2.1.84.16.15.72.32.9.45.42.31.3,1.25,0,1.68-.12.16-.57,2.07-.63,2.27a4.84,4.84,0,0,1-.72,1.83c-.33.51-.06.33-.4.84-.17.26.16.66,0,.94s-.36,1.2-.49,1.38" transform="translate(-7.66 -6.63)"></path><path class="cls-1" d="M114.5,156.64a.93.93,0,0,0,.19,0l3.23-.05c.21,0,.87.06,1.08.07.84.07,1.67.17,2.51.17.64,0,2.17-.07,2.81-.15.88-.12,1.2.09,1.44,1.13a3.61,3.61,0,0,1,0,1.93.36.36,0,0,0,0,.18c.27,1.06-.22,2.08-.17,3.13a9.66,9.66,0,0,1,0,1.07c0,.62-.25.61-.81.72a13.18,13.18,0,0,1-2.59.07c-.89-.09-1.8,0-2.69-.15a11.28,11.28,0,0,0-3,0,11.53,11.53,0,0,1-1.77.14c-.67,0-.76.07-.76.78,0,.48,0,1-.07,1.42,0,.32,0,.63-.06,1a1.41,1.41,0,0,0,.39.09,12.24,12.24,0,0,1,2.57.1c.41,0,.83,0,1.24,0a2.81,2.81,0,0,1,.65,0c1,.22,2.37,0,3.34.18a5.34,5.34,0,0,1,2.45,0c.26,0,1.19,0,1.46,0a12.79,12.79,0,0,1,1.76.16,1.12,1.12,0,0,1,.52.57,3.47,3.47,0,0,1,.2,1.92,2,2,0,0,0-.05.64,3,3,0,0,1,0,1c-.09.81-.09,1.62-.13,2.43a5.69,5.69,0,0,1-.07.71c-.12.71-1.29,1.09-1.95,1-.38-.05-1.44,0-1.83-.05-.18,0-1.24,0-1.41,0a4.76,4.76,0,0,0-2-.13c-.29,0-1,0-1.3,0a11.08,11.08,0,0,1-2.57.11c-1.29-.09-2.58-.19-3.87-.24-.57,0-1.14.07-1.71.07s-.86-.08-1.28-.12a2.69,2.69,0,0,0-.49,0,12.21,12.21,0,0,1-1.6,0c-.38,0-.54-.25-.9-.4a7.07,7.07,0,0,1-1.16-.32c0-.7-.07-1.46-.12-2.22,0-.47-.12-.94-.13-1.41,0-.71,0-1.42,0-2.13,0-.49-.11-1-.15-1.47a8.61,8.61,0,0,1,0-.88,1.92,1.92,0,0,0,0-.24c0-.77-.1-1.54-.1-2.31s.08-1.3.09-1.95c0-.91,0-1.82,0-2.73a2.3,2.3,0,0,1,0-.58,3.66,3.66,0,0,0,0-1.36c-.06-.76-.11-1.53-.11-2.3,0-1.09,0-2.17.08-3.26,0-.8.06-1.59.1-2.38s.1-1.82.1-2.72a10.65,10.65,0,0,0-.15-2c-.18-1,.86-1.71,1.79-1.73s1.59,0,2.38,0c1,0,2.05-.09,3.07-.11a3.12,3.12,0,0,1,1,.14,3.85,3.85,0,0,0,2,.08,3.28,3.28,0,0,1,.69-.1c1.12,0,2.24,0,3.35,0,.47,0,.93-.1,1.39-.13a6,6,0,0,1,1.41,0,1.74,1.74,0,0,0,1,.09,17.17,17.17,0,0,1,3,.09c.45.13,1.36.15,1.89.23,0,.47.09,1,.08,1.44s-.09,1.06-.12,1.59a1.33,1.33,0,0,0,0,.53,3,3,0,0,1,.09,1.45,10.14,10.14,0,0,0,0,1.46,6.34,6.34,0,0,1-.36,1.77,2.29,2.29,0,0,1-.62.11c-.59.07-.73.42-1.35.21,0,0-2.3,0-2.35,0-1.19.26-3-.1-4.21,0-1,.07-1.94.06-2.91.11-.68,0-1.36-.38-2-.31a.73.73,0,0,0-.56.76c0,.16,0,.32,0,.48,0,.69,0,1.39,0,2.08,0,.13,0,.26,0,.39" transform="translate(-7.66 -6.63)"></path><path class="cls-1" d="M198.41,153c-.35,1.57-.09,1.68,0,3.26.12,0,.2.07.28.08.71,0,1.43.09,2.13,0a10.22,10.22,0,0,0,2.34-.18c.1,0,1.53,0,1.63,0a3,3,0,0,0,1.65-.08,5.38,5.38,0,0,1,2,0c.39,0,.52.16.63.59a3.65,3.65,0,0,1,.11,1.23c-.08,1.52-.17,3-.22,4.55a2.63,2.63,0,0,1-.49,1.36.59.59,0,0,1-.4.26c-.76.07-1.53.1-2.29.15-.22,0-1.53,0-1.74.06a2.47,2.47,0,0,1-1.59,0,4.32,4.32,0,0,0-1,0l-2.25.09a4.66,4.66,0,0,0-.63.12c0,1.31-.09,2.1-.14,3.46.63.06,1.44.11,2,.17.32,0,1.3.06,1.62.1a4,4,0,0,0,1.54-.08,3.11,3.11,0,0,1,1.42.06,8.5,8.5,0,0,0,3.22-.07,5.9,5.9,0,0,1,1.39,0,3.22,3.22,0,0,0,1.68-.17,1.44,1.44,0,0,1,1.22.26c.13.07.14.93.19,1.18a10.78,10.78,0,0,1-.21,2.34c0,.93,0,1.84,0,2.78a3.07,3.07,0,0,1-.73,1.85.2.2,0,0,1-.19.06,8,8,0,0,0-1.71-.29,5.5,5.5,0,0,0-.91.09,2.35,2.35,0,0,1-2,.27,2.59,2.59,0,0,0-.73.07c-.15,0-1.17.09-1.3.08a24.59,24.59,0,0,0-3.54.05,16.26,16.26,0,0,1-2.42-.24,1.74,1.74,0,0,0-1.41.08,2.24,2.24,0,0,1-1.47.22,5.06,5.06,0,0,0-1.5.1,7.54,7.54,0,0,1-2.72-.18c-.16,0-1.21-.2-1.28-.36a4.61,4.61,0,0,1-.42-2.41,1,1,0,0,0,0-.29,17,17,0,0,1-.32-3.34,24,24,0,0,1-.12-4.33,17.22,17.22,0,0,0-.1-1.89c0-.84-.11-1.69-.12-2.53,0-1.19,0-2.38,0-3.56,0-1,0-1.94,0-2.91,0-.56.08-1.11.12-1.66.06-.86.13-1.24.18-2.11,0-.41,0-.83,0-1.24,0-.67.16-1.34.19-2s0-1.31-.06-2a2,2,0,0,1,.35-1.32c.23-.31,1.38-.42,1.72-.41.64,0,.85,0,1.5,0a11.64,11.64,0,0,0,1.34,0c.22-.31.52-.22.8-.23l4.25-.12a11,11,0,0,1,1.29.11,10.88,10.88,0,0,0,3.6.07,3.54,3.54,0,0,1,1.45,0,12.16,12.16,0,0,0,2.89.14,26.27,26.27,0,0,1,2.64.09,14.1,14.1,0,0,1,.33,1.54c.09.88.09,1.77.18,2.65a5.63,5.63,0,0,1-.1,1.88c0,.16-.08,1-.12,1.19-.1.43-.29.95-.75.86a7.92,7.92,0,0,0-1.09,0,7.5,7.5,0,0,1-2.62.22,8.7,8.7,0,0,0-1.6.17,9.9,9.9,0,0,1-2,.08l-1.14,0L199.7,153c-.06,0-1.21,0-1.29,0" transform="translate(-7.66 -6.63)"></path><path class="cls-1" d="M170.1,152.89a6.55,6.55,0,0,0-2.68,0,9.49,9.49,0,0,1-1.85.07,3.67,3.67,0,0,1-1-.17.53.53,0,0,0-.27,0,13.67,13.67,0,0,1-2.86,0c-.43,0-.59-.14-.64-.61a3.35,3.35,0,0,1,.06-1.63,2.17,2.17,0,0,0,0-1.1,1.92,1.92,0,0,1,0-1.09,3.64,3.64,0,0,0,.14-1.51,13.2,13.2,0,0,1,.15-2.17.36.36,0,0,1,.41-.37l3,.06a6.19,6.19,0,0,0,.86,0c.32,0,.64.06.93,0a10.56,10.56,0,0,1,1.17.2,17.87,17.87,0,0,0,2.07,0,6.11,6.11,0,0,0,.83-.17,1.06,1.06,0,0,1,.47,0,3.78,3.78,0,0,0,1.6.13,9.14,9.14,0,0,1,1.17,0,.82.82,0,0,0,.27,0,3.18,3.18,0,0,1,1.59.1,13,13,0,0,0,1.65.14c.67,0,1.33,0,2,.05.31,0,.63,0,1,.07.11,0,.23.07.32,0a2.68,2.68,0,0,1,1.32,0,1.62,1.62,0,0,0,.89-.11,1.6,1.6,0,0,1,.62,0,11.21,11.21,0,0,0,1.42,0c.49-.28.91.05,1.35.14a.45.45,0,0,1,.31.29,5,5,0,0,1,.24,1.27,17.88,17.88,0,0,1-.21,1.92,2,2,0,0,0-.09,1,.21.21,0,0,1,0,.17,4.62,4.62,0,0,0-.28,1.73,3.71,3.71,0,0,1-.52,1.54.76.76,0,0,1-.48.33,15.52,15.52,0,0,1-2.73.12c-.61,0-1,0-1.61,0-.14,0-.28,0-.42,0-.62,0-1,0-1.65,0a6.27,6.27,0,0,1-.89-.12,2.63,2.63,0,0,0-.07.42c0,2,0,4.07-.07,6.11,0,.69-.09,1.38-.07,2.07.05,1,0,2,0,3a12.81,12.81,0,0,0,.17,2.23,2.17,2.17,0,0,1-.09.7,6.43,6.43,0,0,0,0,1.64c0,.62.06,1.25.09,1.88a.54.54,0,0,1,0,.18,4,4,0,0,0-.1,1.62c0,.37-.09.74-.09,1.11a5.49,5.49,0,0,0,.05,1.22.93.93,0,0,1-.47,1.08,4,4,0,0,1-2.54.44,4.24,4.24,0,0,0-1.63-.05,4.29,4.29,0,0,1-1.92.07,1.22,1.22,0,0,1-.86-.55,6.09,6.09,0,0,1-.33-1.22.58.58,0,0,1,0-.18,26.73,26.73,0,0,0,.31-5.06c0-.84-.11-1.69-.15-2.54,0-.29,0-.59,0-.89,0-.55,0-1.1-.05-1.65,0-.23.08-.46.09-.7,0-1.28.07-2.57.08-3.86s0-2.69,0-4c0-.55,0-1.1,0-1.66a1.86,1.86,0,0,1,0-.47,2,2,0,0,0,0-1.15" transform="translate(-7.66 -6.63)"></path><path class="cls-1" d="M88.44,168.26c.8.18.91.35,1.68.51.12,0,1.14,0,1.27,0s.33-.08.44,0a5.43,5.43,0,0,0,1.75.17,2.79,2.79,0,0,0,1.22,0c.1,0,1.1,0,1.21,0a3,3,0,0,0,.95,0,3.74,3.74,0,0,1,1.76,0c.71.12,2.08.41,2.14,1.14a3.78,3.78,0,0,0,0,.76,7.84,7.84,0,0,1,.2,2.36,7.36,7.36,0,0,0,.06.82,10.29,10.29,0,0,1,0,2.6c0,.46-1,.31-1.43.43a4.19,4.19,0,0,1-1.54,0,18.67,18.67,0,0,0-3.42-.17c-1.28,0-3.84.25-5.12.3s-2.65.09-4,0c-.63,0-1.27,0-1.9-.07s-1.11.08-1.66,0l-1-.13c-.43,0-1-.17-1-.6s-.17-.86-.21-1.19a27.78,27.78,0,0,1,0-3.29,2.32,2.32,0,0,0,0-.46c0-.25-.07-.5-.09-.75-.06-.77.09-1.54,0-2.32a13.08,13.08,0,0,1,0-1.4,30.42,30.42,0,0,0-.19-3.3c0-.61-.06-1.23-.11-1.85-.11-1.39.15-2.78,0-4.17-.1-.75-.08-1.51-.11-2.26a3.59,3.59,0,0,0,0-.47,11.77,11.77,0,0,1,.1-2.84,1.51,1.51,0,0,0,0-.52,6.46,6.46,0,0,1-.1-2.36,17.93,17.93,0,0,0-.11-3.66A3.72,3.72,0,0,1,79,145a.69.69,0,0,1,.52-.8,4.59,4.59,0,0,1,1.26-.23c1.2,0,2.4,0,3.6.09a14.86,14.86,0,0,1,3.32.48c.55.15.71.3.66.88s-.18,1.27-.25,1.9c-.17,1.56,0,3.12,0,4.69s.11,3.3.08,5c0,1.18,0,2.36,0,3.54,0,.74.07,1.47.06,2.21,0,1.18-.07,2.13,0,3.31a8.69,8.69,0,0,0,.31,2.27" transform="translate(-7.66 -6.63)"></path><path class="cls-1" d="M196.06,96.35h0c.05.63.09,1.26.14,1.89s.15.77.82.67a1.43,1.43,0,0,0,.28-.07,3.51,3.51,0,0,1,2.07-.28,1.77,1.77,0,0,0,.46,0,3.66,3.66,0,0,1,.74,0,4.6,4.6,0,0,0,2.69-.24,1.36,1.36,0,0,0,.92-.9c.28-1.08.62-2.2-.34-3.16a.78.78,0,0,1-.1-.15,1.47,1.47,0,0,0-1.49-.69,5.27,5.27,0,0,1-.68,0,5.31,5.31,0,0,0-1.13,0,5.16,5.16,0,0,1-2.28,0,5.22,5.22,0,0,0-1.53,0c-.52,0-.61.17-.61.71v2.19m-8,21.9c-.46-.32-.66-.65-.54-1.09a3.47,3.47,0,0,0,.09-1.4c0-.38,0,.29,0-.08a11.68,11.68,0,0,1,.12-2.36,3.36,3.36,0,0,0,0-.95c0-.71-.07-1.42-.11-2.13,0-.14,0-.28,0-.41-.08-.55,0-1.1,0-1.64-.14-1.28-.1-2.56-.17-3.84,0-.75-.1-1.5-.17-2.24-.11-1.22.06-2.44,0-3.66s0-2.16-.09-3.24c0-.33-.05-.67-.06-1-.1-1.74-.17-3.48-.27-5.22,0-.83-.15-1.65-.22-2.48a2.73,2.73,0,0,1,.21-1.51c.4-.09.8-.32,1.25-.12a.2.2,0,0,0,.21,0c.3-.35.72-.25,1.09-.29.93-.09,1.87-.19,2.8-.23.63,0,1.26.08,1.9.12a1.7,1.7,0,0,0,.39,0,18.52,18.52,0,0,1,4.64-.23,19.94,19.94,0,0,1,3.59.46c.93.28,1.9.42,2.85.64.33.08.64.25,1,.33a4.37,4.37,0,0,1,1.3.45.66.66,0,0,0,.44,0,.61.61,0,0,1,.67.21,1.4,1.4,0,0,0,.41.29,4.18,4.18,0,0,1,1.34.77c.51.45,1.06.85,1.59,1.28.07.06.19.14.19.21,0,.49.31.77.57,1.09a.57.57,0,0,1,.11.28c.16,1.08.66,2.06.89,3.12a7.27,7.27,0,0,1,0,3.47,4.09,4.09,0,0,0-.14,1,2.82,2.82,0,0,1-.42,1.34,9.35,9.35,0,0,1-2.7,3.28c-.38.27-.71.6-1.06.9a3.45,3.45,0,0,1-1.74.53,2.62,2.62,0,0,1-.28,0c-.45.06-.67.43-.41.8a6.17,6.17,0,0,0,1,1.06c.29.26.63.46.72.89a.28.28,0,0,0,.1.14c.54.46.84.64,1.35,1.1s.8,1.11,1.49,1.43a5.3,5.3,0,0,0,.9.43c.26,0,1,0,1.27.09a5.2,5.2,0,0,0,3.05,0,2.26,2.26,0,0,1,.51-.08.65.65,0,0,1,.72.46c.08.22.21.43.27.65a7.63,7.63,0,0,0,.94,2.1,1.23,1.23,0,0,1,.12.26c.23.65.47,1.3.67,2a9.1,9.1,0,0,1,.33,1.32.94.94,0,0,1-.68,1.13,5.49,5.49,0,0,0-.89.4,7.6,7.6,0,0,1-2.88,1c-.62.08-1.24.21-1.86.33a1.3,1.3,0,0,1-.89-.11,3.45,3.45,0,0,0-.72-.18s0,0-.06,0c-.6-.36-1.31-.35-1.92-.66-.23-.11-.38-.38-.61-.5s-.52-.12-.75-.25a13.71,13.71,0,0,1-1.3-.84,4.35,4.35,0,0,1-.36-.38c-.22-.21-.45-.41-.69-.61a6.23,6.23,0,0,1-.62-.51c-.37-.43-1.17-.88-1.51-1.33a15.89,15.89,0,0,0-1.51-1.45,20.16,20.16,0,0,0-2-1.72c-.36-.29-.79-1.2-1.18-1.44a6.82,6.82,0,0,0-2.11-1.2,1.89,1.89,0,0,1-.44-.35c-.38-.48-.77-.07-1.25-.46,0,.73,0,1.33,0,1.93.13,2.22.3,4.43.43,6.65,0,.58.11.15-.23.69a.25.25,0,0,0,0,.11A1.16,1.16,0,0,1,196,118a.75.75,0,0,1-.84.12,1.15,1.15,0,0,0-.54-.12,18,18,0,0,1-4.4,0,6.68,6.68,0,0,0-1.52.17l-.59.14" transform="translate(-7.66 -6.63)"></path><path class="cls-1" d="M174.23,101.63a6,6,0,0,0-1-3.39,12.28,12.28,0,0,0-1.2-1.72,6,6,0,0,0-2.77-2,1.27,1.27,0,0,0-.63-.08.69.69,0,0,1-.45-.07c-.35-.14-.67-.38-1.08-.28a5.44,5.44,0,0,0-2.52,1.56.73.73,0,0,0-.22.39,1.51,1.51,0,0,1-.38.78,6.87,6.87,0,0,0-.79,1.22,18.67,18.67,0,0,0-.67,2.12c-.16.6-.27,1.22-.41,1.83a2.42,2.42,0,0,0,.2,1.69,5.22,5.22,0,0,1,.54,1.49,4.15,4.15,0,0,0,1.92,2.55,8.89,8.89,0,0,0,2,1,2.6,2.6,0,0,0,1.84.08,1.33,1.33,0,0,1,.57-.14,2.65,2.65,0,0,0,2.09-.94,8,8,0,0,1,1.78-1.3,1.17,1.17,0,0,0,.65-1c0-.66.15-1.32.24-2,0-.12.06-.24.07-.36.09-.45.16-.91.24-1.37m-2.91-17.09c.29-.2.59-.3.86.06,0,.06.16.05.24.08a4.63,4.63,0,0,1,2,.93,2.5,2.5,0,0,0,1,.45A4.77,4.77,0,0,1,177,87,7.6,7.6,0,0,0,178.6,88a.9.9,0,0,1,.31.21c.29.32.56.69.87,1a2.56,2.56,0,0,1,1,2,1.7,1.7,0,0,0,.52,1,4.68,4.68,0,0,1,.56,1.09,8.75,8.75,0,0,1,.42,1.89,26.55,26.55,0,0,1,.36,2.68,13.29,13.29,0,0,1,.23,1.91c0,.65-.13,1.3-.12,1.94,0,.86-.18,1.68-.22,2.52a13.71,13.71,0,0,1-.37,2.58c-.22.84-.27,1.71-.43,2.56a7.53,7.53,0,0,1-.6,1.55,7.77,7.77,0,0,0-.28.76,6,6,0,0,1-.82,1.55,11.85,11.85,0,0,1-2,2.1,1,1,0,0,0-.21.19,8.88,8.88,0,0,1-3.21,2.19,4.36,4.36,0,0,1-1.52.56c-.64.06-1.27.19-1.91.26a1.07,1.07,0,0,1-1-.2c-.13-.13-.45,0-.68,0a6.55,6.55,0,0,1-3.08-.1,4,4,0,0,0-.91-.17,16.09,16.09,0,0,1-3.48-.73c-.15-.05-.29-.15-.45-.2a4.11,4.11,0,0,0-.87-.26,1.43,1.43,0,0,1-.93-.39c-.47-.41-1-.73-1.49-1.1a2.93,2.93,0,0,1-.59-.52c-.46-.64-.9-1.32-1.35-2-.19-.27-.35-.56-.56-.82a8.6,8.6,0,0,1-1.47-3.42,4.83,4.83,0,0,0-.46-1.42,2.44,2.44,0,0,1-.25-1.58,8.07,8.07,0,0,0-.13-1.61c0-.28,0-.55-.06-.83a2.51,2.51,0,0,0,0-.72,8.49,8.49,0,0,1-.18-2.46.6.6,0,0,1,0-.3,6.71,6.71,0,0,0,.28-2.52,4.26,4.26,0,0,1,.15-.88c.24-.85.46-1.72.75-2.54.39-1.09.82-2.17,1.29-3.21.15-.33.51-.54.78-.8s.21-.72.6-.9c.2-.09.31-.44.5-.61a5.48,5.48,0,0,1,.77-.52c.2-.12.46-.17.61-.34a6.48,6.48,0,0,1,2.25-1.71,11.58,11.58,0,0,1,3.47-1.26c.21,0,.42-.12.63-.17a5.24,5.24,0,0,1,2.23-.12,4.34,4.34,0,0,0,1.44.05,8.62,8.62,0,0,1,1.83,0c.16,0,.31.15.53.26" transform="translate(-7.66 -6.63)"></path><path class="cls-1" d="M140.7,97.27a1.17,1.17,0,0,0-.78.56c-.18.34-.39,1.1-.75,1.28a2.56,2.56,0,0,0-.84.8,10.53,10.53,0,0,0-1.34,1.75,1,1,0,0,1-.31.31,4.36,4.36,0,0,0-.91.91,7.36,7.36,0,0,1-1.26,1.35,2.29,2.29,0,0,1-1.1.43c-.18,0-.44-.16-.6-.33a8.64,8.64,0,0,0-1.13-1c-.31-.22-.48-.68-.74-1s-.68-.74-1-1.11c-.14-.15-.3-.28-.43-.43-.42-.47-.81-.95-1.23-1.4-.14-.15-.34-.22-.49-.37-.37-.37-.93-.76-1.29-1.13l-.54-.56a5.38,5.38,0,0,0-.08.67,7.38,7.38,0,0,1-.19,1.81,5.36,5.36,0,0,0,0,1.06l0,2.25c0,.75,0,1.5,0,2.24a8.51,8.51,0,0,0,.07,1.24,5.16,5.16,0,0,1-.13,1.52.58.58,0,0,0,0,.18,11.54,11.54,0,0,1,0,2.35,1.91,1.91,0,0,1,0,.41,8.07,8.07,0,0,0,0,1.7,8.52,8.52,0,0,0,0,1c0,.41.06.81.09,1.22s.1.78.14,1.3a.61.61,0,0,1-.45.73,10.6,10.6,0,0,1-2.55.36c-.44,0-1.32.07-1.76.1-.09,0-1.06,0-1.14,0a1.89,1.89,0,0,0-1.17-.12l-.56.11c-.5.1-.54-.12-.56-.67,0-1-.1-1.82-.1-2.85a29.18,29.18,0,0,1,.1-3c.18-1.92-.15-3.83-.13-5.74,0-.84,0-1.67,0-2.5l-.06-4.33c0-1.15,0-2.3,0-3.45,0-.85.1-1.7.13-2.55,0-1.2-.15-2.4-.09-3.6,0-.91.13-2.85.2-3.76a.94.94,0,0,1,.82-.91q.39,0,.78-.06a20.25,20.25,0,0,1,2-.25c.74,0,1.91.08,2.64.15A10.45,10.45,0,0,0,125,84c.43-.05,1,1.5,1.3,1.73a1.46,1.46,0,0,1,.57.76A6.71,6.71,0,0,0,128,88a40.53,40.53,0,0,1,3.35,4.13A13.62,13.62,0,0,0,133,93.67c.3-.4.56-.8.87-1.14s.78-.76,1.15-1.15.56-.61.83-.92a5.5,5.5,0,0,1,.56-.62,4.52,4.52,0,0,0,1.41-1.59,1.85,1.85,0,0,1,.51-.6,2.72,2.72,0,0,0,.88-.93c.14-.28.51-.42.73-.67a10.61,10.61,0,0,0,.78-.86c.06-.1.07-.23.13-.33a1.28,1.28,0,0,1,1.27-.68c.91.06,2.27-.06,3.19,0a16,16,0,0,1,2.39.22c.46.1.68.58.79,1a3.14,3.14,0,0,1,0,1.64,1.82,1.82,0,0,0,0,1,9.67,9.67,0,0,1,.1,1.53c.05,1.13.11,2.25.15,3.38,0,.24,0,.48,0,.71,0,1,.11,2.09.14,3.13,0,.38-.29.75-.3,1.12,0,1.27.21,2.53.18,3.8s-.11,2.37-.14,3.55c0,.44,0,.87.07,1.31s.06.62,0,.93c0,.89-.06,1.78-.07,2.66,0,.6,0,1.19,0,1.79s0,1,0,1.52a9.13,9.13,0,0,0,0,1.48c0,.17.07.34.09.52a.81.81,0,0,1,0,.34c-.17.5-.09.27,0,.77a1.61,1.61,0,0,1,0,.87.69.69,0,0,1-.66.49c-.92,0-2.24-.05-3.15-.1-.41,0-1-.13-1.45-.17a9.41,9.41,0,0,0-1.3,0,1,1,0,0,1-1.19-.8,2.88,2.88,0,0,1,0-1.72A4.31,4.31,0,0,0,141,113a1.05,1.05,0,0,1-.05-.46,10.21,10.21,0,0,0,0-3.17s0-.08,0-.11a13.47,13.47,0,0,0,0-2.54,17.11,17.11,0,0,0-.05-1.89c0-.68,0-1.35,0-2s0-1.34,0-2c0-1.16-.06-2.32-.09-3.52" transform="translate(-7.66 -6.63)"></path><path class="cls-1" d="M79.61,93.55c-.39,0,.71-.08.38,0a2.1,2.1,0,0,1-1.16-.14,14.26,14.26,0,0,0-1.6-.06c-1,.06-1.42.15-2.43.19a4.74,4.74,0,0,1-1.12-.12c-.51-.09-.81-.23-1.32-.31s-1.22-.1-1.83-.18A1.16,1.16,0,0,1,70,92.7a.65.65,0,0,1-.25-.42,13.55,13.55,0,0,1-.27-4.12c.09-.66.08-1.34.15-2a1.33,1.33,0,0,1,1.21-1.27,7.1,7.1,0,0,1,2.3,0,1.29,1.29,0,0,0,.51.1c.94,0,1.29-.24,2.23-.21.76,0,1.51.13,2.26.16a19.78,19.78,0,0,0,2.31,0,8.88,8.88,0,0,0,1.2-.32,2.42,2.42,0,0,1,.76,0,7.07,7.07,0,0,0,2.1.12,1,1,0,0,1,.51,0,6.11,6.11,0,0,0,2.09.06,9.89,9.89,0,0,0,2-.08c.37-.07.73-.2,1.09-.29a1.83,1.83,0,0,1,.46-.07l2.11,0c.27,0,.54-.07.81-.1a4.38,4.38,0,0,1,.52,0l1.32,0c.22,0,.44,0,.66,0a1.09,1.09,0,0,1,.86,1c0,.64,0,1.27.06,1.9a.81.81,0,0,1-.07.35,1.48,1.48,0,0,0-.06.86,3.71,3.71,0,0,1,0,.94c-.12.77-.27,2.26-.43,3a.65.65,0,0,1-.73.58,1.71,1.71,0,0,1-.46,0,3.51,3.51,0,0,0-2,0,2.17,2.17,0,0,1-1-.06,3,3,0,0,0-1.76.22,1.69,1.69,0,0,1-.94.12c-.75-.11,0-.16-.72.13a.7.7,0,0,0-.25.41,4.44,4.44,0,0,0-.3.76,62,62,0,0,0-.14,6.4c0,.89,0,1.78,0,2.67,0,.24.06.47.06.71,0,1.11,0,2.22.08,3.33s-.08,2.45,0,3.68c0,.69.08,1.38.12,2.07a.58.58,0,0,0,0,.23,1.76,1.76,0,0,1,0,1.42c-.07.25,0,1.58-.16,1.72a3.53,3.53,0,0,1-2.29.76c-.39,0-1.2-.06-1.59-.05s-1.15.11-1.52.13-1.77,0-2.13,0c-.56,0-.87-1.31-1-2a5.93,5.93,0,0,1,0-1.88,13.44,13.44,0,0,0,.06-2.61,22.3,22.3,0,0,1-.09-2.83c0-1.07.3-2.13.25-3.2,0-.16,0-.32,0-.48.06-1.28.08-2.56,0-3.85s-.3-2.36-.27-3.54c0-.81,0-1.62,0-2.43V93.55" transform="translate(-7.66 -6.63)"></path><path class="cls-1" d="M102.06,114.81c0-.62.08-1.14.08-1.65,0-1.12,0-2.25-.06-3.37a2.8,2.8,0,0,1,0-.41,5.43,5.43,0,0,0,0-1.66,4.73,4.73,0,0,1,0-.65c0-.43,0-.87-.06-1.3s0-.67,0-1c0-.89,0-1.77,0-2.66s0-2,0-2.94a36.64,36.64,0,0,0,0-4.06c-.07-.78,0-1.59,0-2.37s-.11-1.74-.16-2.61a10.48,10.48,0,0,1,0-1.48,4.9,4.9,0,0,0-.16-1.87,3.42,3.42,0,0,1,0-1.59,1,1,0,0,1,.89-.86l1.82-.19a.5.5,0,0,1,.21,0c.74.23,3.82,0,4.56.23.13,0,.26.13.39.18.36.13.31.89.36,1.26.18,1.33.38,2.66.51,4,.08.77,0,1.54,0,2.31s0,1.71.13,2.55a26.4,26.4,0,0,1,0,2.67c0,.7-.1,1.41-.1,2.12s.07,1.26.11,1.89.06,1.5.13,2.24a38,38,0,0,1,.1,4.4,2.79,2.79,0,0,1-.16.86,4.38,4.38,0,0,0,0,1.53c0,.49,0,1,.07,1.47l.09,1.18a2.85,2.85,0,0,1-.37,1.41,1.15,1.15,0,0,0-.08.73c.1.41.12,1.87-.22,2.18a1,1,0,0,1-.46.27c-.51.09-1.24.15-1.75.22a9.91,9.91,0,0,1-1.09,0c-.09,0-.18-.06-.26-.06-.73,0-2.71.06-3.43.11s-.84-1.21-.9-1.84c0-.46-.09-.91-.13-1.25" transform="translate(-7.66 -6.63)"></path><path class="cls-2" d="M140.74,134.9c-1.15-.32-.87-.07-1.94,0a14.29,14.29,0,0,1-2.26.31,6.08,6.08,0,0,1-1.21-.16.55.55,0,0,0-.33,0c-.74.18-.4,0-1.14,0-.54,0-.73-.15-.79-.61a2.87,2.87,0,0,1,.07-1.64,1.77,1.77,0,0,0,0-1.09,1.49,1.49,0,0,1,0-1.1,3.07,3.07,0,0,0,.16-1.51,11.35,11.35,0,0,1,.18-2.17c0-.26.22-.37.51-.37.79,0,.51,0,1.3.06a9.21,9.21,0,0,0,1.05,0c.38,0,1.59-.19,1.94-.2.52,0,.16.17.64.2a5.82,5.82,0,0,0,1.18,0,9.21,9.21,0,0,0,1-.17,1.56,1.56,0,0,1,.57,0,11.13,11.13,0,0,0,2.77.13,13.71,13.71,0,0,1,1.43,0,1.22,1.22,0,0,0,.33,0,3.54,3.54,0,0,1,1.68.1,7,7,0,0,0,1.22.14l1.91,0c.38,0,0,0,.35.08.13,0,1.1.06,1.2,0a5.45,5.45,0,0,1,1.89,0c.37,0,.19,0,.55-.11a2.45,2.45,0,0,1,.77,0c.15,0,.34.06.45,0,.6-.29.31,0,.86.13a.51.51,0,0,1,.37.29,3.64,3.64,0,0,1,.16,1.27,12.39,12.39,0,0,1-.13,1.92c0,.33-.21.64-.06,1a.21.21,0,0,1,0,.17s0,1.15-.05,1.73.23,1.07-.1,1.54c-.11.16-.71.29-.93.33a6.38,6.38,0,0,1-1.8.12,15.89,15.89,0,0,0-1.69,0l-1.33,0c-.77,0-.45,0-1.22,0-.34,0-.68-.07-1.08-.11,0,.12-.15.32-1,.13-2.53.24-1.4.08-1.4.08a4.64,4.64,0,0,0-1-.23c-.29,0-2.65.3-3.14,0s-1.56,0-2-.24" transform="translate(-7.66 -6.63)"></path><path class="cls-3" d="M46.81,152.27l1.79,15.27H29L31.64,152Zm0-85.42,7.37-15.37L51.1,49.39l-6.31,16.1-3.38-.12,5.4-16H42.3l-3.55,16L35.2,66l.88-16.57H31.64l1.48,16.86-2.07.6L26,49.39l-4.14,1.48,6.51,16.57L7.66,136.63,21.28,136,19.5,167.54H8.06L9.55,176H63.4l2-8.41H57.1l-.6-33.22,11.9-1.16Z" transform="translate(-7.66 -6.63)"></path><polygon class="cls-4" points="108.87 21.59 115.91 6.1 99.78 13.77 96.66 1.25 88.52 10.01 77.89 0 76.48 11.62 58.48 6.26 65.57 21.73 49.72 25.35 65.57 33.8 55.83 45.53 68.97 45.75 62.62 57.3 80.24 54.36 84.45 71.25 92.32 55.77 108.4 68.28 104.86 52.58 119.2 51.64 108.4 42.27 123.42 36.14 110.42 30.66 120.12 23.15 108.87 21.59"></polygon></svg> 